<?xml version="1.0" encoding="UTF-8"?>
<!DOCTYPE svg PUBLIC "-//W3C//DTD SVG 1.1//EN" "http://www.w3.org/Graphics/SVG/1.1/DTD/svg11.dtd">
<!-- Creator: CorelDRAW -->
<svg xmlns="http://www.w3.org/2000/svg" xml:space="preserve" width="182.88mm" height="182.88mm" version="1.1" style="shape-rendering:geometricPrecision; text-rendering:geometricPrecision; image-rendering:optimizeQuality; fill-rule:evenodd; clip-rule:evenodd"
viewBox="0 0 18287.34 18287.34"
 xmlns:xlink="http://www.w3.org/1999/xlink"
 xmlns:xodm="http://www.corel.com/coreldraw/odm/2003">
 <defs>
  <style type="text/css">
   <![CDATA[
    .fil7 {fill:black}
    .fil3 {fill:#40ADFF}
    .fil1 {fill:#40FFEB}
    .fil5 {fill:#607280}
    .fil4 {fill:#806060}
    .fil0 {fill:#AA7A63}
    .fil6 {fill:#FF4540}
    .fil2 {fill:#FF7E41}
    .fil8 {fill:black;fill-rule:nonzero}
   ]]>
  </style>
 </defs>
 <g id="Camada_x0020_1">
  <metadata id="CorelCorpID_0Corel-Layer"/>
  <g id="_2461088265376">
   <path class="fil0" d="M5210.42 982.58l3542.81 7343.58c118.23,-56.56 250.63,-88.24 390.44,-88.24l0 -8151.64c-1409.45,0 -2743.7,321.94 -3933.25,896.29z"/>
   <path class="fil1" d="M9143.67 86.3l0 8151.64c139.8,0 272.21,31.68 390.44,88.24l3542.81 -7343.58c-1189.55,-574.35 -2523.8,-896.29 -3933.25,-896.29z"/>
   <path class="fil2" d="M13076.92 982.58l-3542.81 7343.58c124.98,59.8 234.1,147.4 319.36,254.81l6370.27 -5086.64c-843.37,-1055.56 -1917.86,-1918.37 -3146.82,-2511.76z"/>
   <path class="fil3" d="M16223.73 3494.34l-6370.27 5086.64c81.96,103.25 141.85,224.78 172.6,357.49l7950.63 -1807.17c-306.77,-1352.18 -916.07,-2589.47 -1752.97,-3636.95z"/>
   <path class="fil4" d="M17976.7 7131.29l-7950.63 1807.17c15.27,65.93 23.34,134.63 23.34,205.2 0,70.58 -8.07,139.27 -23.34,205.2l7950.63 1807.17c146.82,-647.21 224.34,-1320.74 224.34,-2012.38 0,-691.64 -77.52,-1365.17 -224.34,-2012.38z"/>
   <path class="fil5" d="M17976.7 11156.05l-7950.63 -1807.17c-30.75,132.71 -90.65,254.24 -172.6,357.49l6370.27 5086.64c836.9,-1047.48 1446.2,-2284.77 1752.97,-3636.95z"/>
   <path class="fil6" d="M16223.73 14793l-6370.27 -5086.64c-85.26,107.41 -194.38,195.01 -319.36,254.81l3542.81 7343.58c1228.96,-593.39 2303.45,-1456.2 3146.82,-2511.76z"/>
   <path class="fil0" d="M13076.92 17304.76l-3542.81 -7343.58c-118.23,56.56 -250.63,88.24 -390.44,88.24l0 8151.64c1409.45,0 2743.7,-321.94 3933.25,-896.29z"/>
   <path class="fil1" d="M9143.67 18201.04l0 -8151.64c-139.8,0 -272.21,-31.68 -390.44,-88.24l-3542.81 7343.58c1189.55,574.35 2523.8,896.29 3933.25,896.29z"/>
   <path class="fil2" d="M5210.42 17304.76l3542.81 -7343.58c-124.98,-59.8 -234.1,-147.4 -319.37,-254.82l-6370.25 5086.66c843.36,1055.56 1917.85,1918.36 3146.81,2511.75z"/>
   <path class="fil3" d="M2063.62 14793.01l6370.25 -5086.66c-81.95,-103.24 -141.84,-224.77 -172.59,-357.48l-7950.63 1807.17c306.78,1352.18 916.08,2589.48 1752.98,3636.96z"/>
   <path class="fil4" d="M310.64 11156.05l7950.63 -1807.17c-15.27,-65.93 -23.34,-134.63 -23.34,-205.2 0,-70.58 8.07,-139.27 23.34,-205.2l-7950.63 -1807.17c-146.82,647.21 -224.34,1320.74 -224.34,2012.38 0,691.64 77.52,1365.17 224.34,2012.38z"/>
   <path class="fil5" d="M310.64 7131.29l7950.63 1807.17c30.75,-132.71 90.65,-254.24 172.59,-357.48l-6370.25 -5086.66c-836.91,1047.48 -1446.21,2284.78 -1752.98,3636.96z"/>
   <path class="fil6" d="M2063.62 3494.33l6370.25 5086.66c85.27,-107.41 194.39,-195.02 319.37,-254.82l-3542.81 -7343.58c-1228.96,593.39 -2303.45,1456.19 -3146.81,2511.75z"/>
   <path class="fil7" d="M15292.5 9143.67c0,346.19 140.31,659.61 367.17,886.45 226.84,226.85 540.26,367.17 886.45,367.17 346.19,0 659.61,-140.31 886.45,-367.17 226.85,-226.84 367.18,-540.26 367.18,-886.45 0,-346.19 -140.32,-659.61 -367.18,-886.45 -226.84,-226.85 -540.26,-367.17 -886.45,-367.17 -346.19,0 -659.61,140.31 -886.45,367.17 -226.85,226.84 -367.17,540.26 -367.17,886.45zm-150.96 0c0,775.73 628.86,1404.58 1404.58,1404.58 775.73,0 1404.58,-628.85 1404.58,-1404.58 0,-775.73 -628.85,-1404.58 -1404.58,-1404.58 -775.72,0 -1404.58,628.85 -1404.58,1404.58zm2413.73 95.71l-145.47 0 0 -191.41c206.64,0 168.44,-38.2 168.44,168.44 0,17.64 -5.33,22.97 -22.97,22.97zm-352.21 0l0 -191.41 130.17 0 0 191.41 -130.17 0zm-206.72 0l0 -191.41 130.17 0 0 191.41 -130.17 0zm-206.73 0l0 -191.41 130.17 0 0 191.41 -130.17 0zm-911.12 375.17c-24.76,0 -38.29,-27.79 -38.29,-53.6l0 -834.56c0,-25.8 13.53,-53.6 38.29,-53.6l666.12 0c24.75,0 38.29,27.8 38.29,53.6l0 834.56c0,25.81 -13.54,53.6 -38.29,53.6l-666.12 0zm222.03 -1071.91c12.27,-23.19 88.62,-120.25 114.85,-137.83 28.74,42.91 85.15,96.16 107.2,137.83l-222.04 0zm107.2 1339.89c-17.11,-25.54 -35.5,-44.17 -54.68,-67.84 -19.79,-24.42 -37.75,-42.07 -52.52,-69.98l222.04 0c-12.27,23.19 -88.62,120.25 -114.85,137.82zm-497.67 -627.84c-41.67,-22.04 -94.92,-78.46 -137.83,-107.19l67.84 -62.33c24.43,-19.79 42.07,-37.75 69.99,-52.53l0 222.04zm497.67 819.25c59.84,-40.07 248.4,-317.52 285.03,-327.49 8.69,-2.36 220.3,18.12 220.3,-154.87l0 -222.03 872.84 0c155.97,0 122.51,-186.8 122.51,-329.24 0,-69.2 -53.31,-122.51 -122.51,-122.51l-872.84 0c0,-168.15 31.48,-311.73 -102.22,-364.83 -47.32,-18.79 -65.06,-2.79 -111.69,-10.82 -22.66,-3.9 -21.99,-6.65 -35.93,-25.33 -29.67,-39.72 -228,-285.01 -255.5,-303.42 -40.63,60.66 -190.29,224.51 -244.76,298.86 -25.38,34.64 -20.08,31.2 -76.71,30.48 -187.75,-2.41 -177.26,152.42 -176.08,260.34 0.55,49.92 8.49,61.86 -21.41,85.78l-307.94 250.98c16.12,24.08 261.42,224.68 294.34,249.27 37.65,28.13 35.88,18.87 35.27,79.57 -0.91,92.03 -19.77,274.51 160.16,276.26 50.78,0.5 60.76,-10.67 86.15,21.05l151.44 185.44c31.66,40.74 70.75,79.52 99.54,122.51zm-122.51 -704.39c-24.81,0 -45.94,-33.28 -45.94,-61.26l0 -329.23c0,-27.98 21.13,-61.26 45.94,-61.26l252.66 0c24.81,0 45.94,33.28 45.94,61.26l0 329.23c0,27.98 -21.13,61.26 -45.94,61.26l-252.66 0zm38.28 76.56c368.05,0 336.89,15.11 336.89,-436.41 0,-201.38 -153.98,-168.45 -336.89,-168.45 -110.33,0 -160.78,56.68 -160.78,168.45l0 267.97c0,111.78 50.46,168.44 160.78,168.44zm153.13 -214.38l0 -176.09 -122.51 0 0 176.09 122.51 0z"/>
   <path class="fil7" d="M14549.57 6541.54c337.07,698.67 1176.69,991.8 1875.36,654.75 698.66,-337.07 991.8,-1176.69 654.74,-1875.36 -337.06,-698.67 -1176.68,-991.81 -1875.35,-654.75 -698.67,337.07 -991.81,1176.69 -654.75,1875.36zm136 -64.71c150.55,311.58 412.99,532.72 715.61,638.37 302.97,105.78 646.35,95.95 958.3,-54.54l0.77 -0.37c311.56,-150.56 532.69,-413 638.35,-715.61 105.78,-302.97 95.95,-646.35 -54.55,-958.3l-0.36 -0.77c-150.56,-311.57 -413,-532.7 -715.61,-638.35 -302.97,-105.78 -646.35,-95.95 -958.3,54.54l-0.76 0.37c-311.57,150.56 -532.71,412.99 -638.36,715.61 -105.78,302.97 -95.95,646.35 54.54,958.3l0.37 0.75zm2042.12 -803.19l-217.36 104.87c-54.3,26.2 -78.57,-28.21 -94.01,-60.21l-217.36 104.87 -41.31 -85.63 210.78 -101.69c56.14,-27.08 78.39,-78.84 57.49,-133.3 48.36,-23.33 96.88,-46.38 145,-70.17 24.56,-12.15 46.71,-25.6 67.75,-21.48 45.88,9 85.21,120.18 113.12,178.03 15.37,31.86 9.89,68.31 -24.1,84.7zm-452.8 -130.7c-136.45,65.82 -110.05,74.84 -169.4,-48.2l65.87 -31.78 -31.78 -65.87 -111.97 54.02 -50.85 -105.38 191.01 -92.16 120.76 250.29c7.44,15.43 1.78,31.63 -13.64,39.07zm-327.49 28.07l46.11 -22.25 12.71 26.35 -58.82 -4.1zm0 0c-48.08,10.78 -90.21,11.77 -145.64,24.94 -198.12,47.09 -300.61,117.27 -488.93,208.12 14.43,-102.06 175.27,-198.25 271.67,-244.74 139.98,-67.51 208.61,-105.56 230.76,-248.07l132.15 259.75zm-459.41 798.14c-49.77,24.01 -178.78,-211.45 -200.89,-311.15 -5.05,-22.78 -6.19,-36.6 -9.18,-57.98 -2.9,-20.72 -11.68,-35.44 9.88,-45.85 196.62,-94.86 423.99,-226.24 624.68,-251.74 150.08,-19.06 158.54,12.1 219.07,31.46l-204.19 98.51 54.02 111.98 210.77 -101.69c-1.19,32.09 -2.57,26.28 -15.9,54.7 -109.5,233.55 -451.51,357.55 -688.26,471.76zm754.58 301.79c-73.97,-153.31 -141.96,-94.79 -287.53,-23.63 -235.63,115.19 -527.17,89.5 -699.74,-113.69 -97.89,-115.24 -211.79,-351.35 -241.07,-499.68 -10.93,-55.41 -10.98,-100.67 -5.41,-149.77 11.29,-99.54 38.72,-179.89 100.27,-260.77 253.8,-333.51 540.45,-181.73 399.45,-474l26.35 -12.71c86.74,-41.85 201.01,136.64 114.75,237.24 -32.81,38.27 -92.78,60.75 -152.08,89.32 -191.15,92.08 -343.02,241.29 -346.68,448.6 -4.12,234.04 102.46,453.31 289.35,594.16 291.76,219.86 625.96,-59.8 732.65,-59.01 42.56,0.32 93.89,21.6 117.67,70.9 40.32,83.57 57.3,134.75 -35.25,179.39l-12.71 -26.35zm-1295.1 -244.02l-41.31 -85.63 72.46 -34.96 41.31 85.63 -72.46 34.96zm133.07 73.84c34.71,71.94 124.99,164.37 174.79,205.34 195.37,160.73 507.23,172.05 720.82,69.01l144.9 -69.91 76.27 158.08c103.46,-49.91 222.04,-85.48 248.71,-187.03 26.24,-99.92 -44.31,-255.78 -126.92,-318.69 -156.71,-119.35 -337.71,49.81 -508.26,90.87 -54.15,13.04 -150.01,17.94 -189.8,-5.44 213.19,-102.85 583.92,-251.17 663.32,-496.89 8.04,-24.9 2.89,-24.34 27.6,-39.66 15.67,-9.73 47.99,-22.91 66.17,-31.68 31.67,39.29 104.96,54.92 159.87,28.43l270.06 -130.29c79.43,-38.32 101.21,-143.64 62.05,-224.81l-79.44 -164.66c-39.16,-81.17 -135.16,-129.68 -214.58,-91.36l-204.19 98.51 -146.17 -302.99 -408.38 197.01c-22.3,-58.08 9.22,-14.54 -63.1,-164.43 -46.15,-95.67 -160.54,-149.9 -253.64,-105l-158.08 76.27 76.27 158.08c-208.67,100.67 -295.01,139.99 -436.46,335.11 -61.99,85.5 -103.64,225.88 -103.11,336.45 0.32,65.23 16.68,196.98 51.96,270.1l-191.02 92.15 149.34 309.59 191.02 -92.16z"/>
   <path class="fil7" d="M12882.69 4453.51c606.19,484.04 1489.99,385.03 1974.02,-221.16 484.03,-606.19 385.02,-1489.99 -221.16,-1974.02 -606.19,-484.03 -1489.99,-385.03 -1974.02,221.16 -484.04,606.19 -385.03,1489.99 221.16,1974.02zm93.98 -117.75c270.68,216.02 603.33,301.96 922.33,266.22 318.75,-35.71 623.87,-192.99 839.77,-463.38l0.2 -0.25c216.03,-270.68 301.95,-603.31 266.22,-922.32 -35.71,-318.74 -193,-623.86 -463.39,-839.77l-0.26 -0.21c-270.67,-216.01 -603.3,-301.93 -922.3,-266.2 -318.75,35.71 -623.87,193 -839.77,463.39l-0.19 0.24c-216.03,270.68 -301.96,603.32 -266.22,922.32 35.71,318.75 192.99,623.87 463.38,839.77l0.23 0.19zm1306.68 -1125.64l-140.06 -111.85 90.34 -113.14 -204.72 -163.46 -90.34 113.14 -140.06 -111.85 309.72 -387.88 484.85 387.15 -309.72 387.89zm-193.94 -154.86l-96.97 -77.43 47.32 -59.26 96.97 77.43 -47.32 59.26zm-418.91 -105.13l-37.71 -30.12 38.71 -48.48 37.72 30.11 -38.72 48.49zm315.68 234.42c-12.47,15.62 -74.17,16.61 -91.51,15.16 -5.25,-16.58 -17.94,-76.98 -5.47,-92.59l30.12 -37.72 96.98 77.44 -30.12 37.71zm-431.82 -88.97l-183.16 -146.25 279.61 -350.18 -118.53 -94.64 43.02 -53.87 172.39 137.66 -279.61 350.17 129.3 103.24 -43.02 53.88zm378.28 399.1l-334.01 -266.71 202.17 -253.2 64.65 51.62 -51.62 64.66c-13.66,17.11 8.88,165.99 16.33,189.47 24.54,2.06 174.72,-8.91 188.38,-26.01l51.62 -64.66 64.66 51.62 -202.18 253.21zm-470.62 -128.77c-100.71,-80.42 -120.76,-99.48 -257.23,-106.84 -33.94,-1.83 -37.72,-12.35 -65.88,-18.84l159.16 -199.32 183.16 146.25 -47.32 59.26 75.42 60.22 -47.32 59.27zm274.76 219.38l-183.17 -146.25 47.32 -59.26 183.16 146.25 -47.31 59.26zm-191.29 394.24l-334.01 -266.7 193.58 -242.43 334.01 266.7 -193.58 242.43zm-227.71 -587.65c-67.22,84.18 -168.79,262.21 -252.83,195.11 -79.48,-63.47 -128.29,-106.58 -193.19,-184.38 -76.5,-91.68 -75.07,-110.65 -109.67,-154.49 51.78,-64.84 125.8,-169.89 180.78,-225.2 73.58,-74.02 179.98,-67.28 214.46,-201.68 5.31,-20.72 6.31,-35.96 7.32,-54.79 5.91,-110.81 -74.68,-39.44 16.75,-153.93l96.97 77.43c108.03,86.26 10.57,174.59 -24.56,218.58 -63.1,79.02 -126.1,158.1 -189.28,237.04 -61.87,77.29 -111.41,128 31.46,193.15 87.12,39.74 102.76,-3.59 221.79,53.17zm780.35 923.06c-24.16,-11.52 -62.05,-21.24 -91.93,-32.41 -70.97,-26.52 -207.44,-109.59 -267.85,-157.83 -123.77,-98.82 -49.98,-136.28 96.61,-319.85 28.24,35.79 43.73,61.75 56.14,101.63 17.77,57.13 62.73,175.53 141.47,173.88 42.38,-0.9 64.14,-39.73 98.65,-83.06 62.99,-79.09 126.18,-158.02 189.26,-237.04 31.37,-39.29 60.58,-89.29 97.06,-97.01 83.06,-17.57 126.14,37.02 207.65,102.11 -59.7,74.76 -41.2,57.86 -67.58,53.59 -8.95,-1.44 -15.72,-4.98 -30.19,-6.8 -90.08,-11.35 -186.83,62.29 -211.14,174.22 -27.58,126.96 -124.34,211.08 -218.15,328.57zm-738.81 -245.87l-193.94 -154.86 43.02 -53.87 193.94 154.85 -43.02 53.88zm134.6 19.25c162.58,129.83 387.62,306.94 587.83,343.02 25.02,4.5 42.03,0.56 64.96,10.61 63.09,-79.01 126.02,-158.17 189.28,-237.04 33.62,-41.91 58.86,-77.5 75.6,-116.39 8.39,-19.51 12.21,-35.61 15.74,-55.73 20.44,-116.56 87.53,-98.12 169,-43.46l193.57 -242.42 -193.94 -154.86c-98.92,-78.99 -223.13,-76.45 -302.54,14.09 -91.26,104.05 -183.48,229.99 -270.99,339.58 -11.16,-23.14 -22.3,-26.05 -31.63,-55.32 -43.81,-137.53 -46.31,-139.24 -162.43,-231.97l47.32 -59.26 75.43 60.22 275.3 -344.78 75.43 60.22 455.97 -571.05 -668.02 -533.4 -215.09 269.36 -317.85 -253.8 -189.26 237.04 118.52 94.64 -55.92 70.04c-24.46,-30.99 -34.12,-53.71 -73.3,-85l-193.94 -154.85 -193.57 242.42c148.58,140.33 8.04,158.1 -51.29,198.94 -69.59,47.9 -228.33,261.73 -290.6,339.71 25.22,34.15 47.13,205.25 376.2,468l113.13 90.34 -116.15 145.45 377.11 301.12 116.15 -145.46z"/>
   <path class="fil7" d="M10512.6 3147.97l0.41 0.1c337.89,76.8 674.85,9.43 946.45,-161.56 271.5,-170.93 477.78,-445.27 554.56,-782.54l0.1 -0.42c76.8,-337.89 9.43,-674.84 -161.56,-946.44 -170.92,-271.5 -445.27,-477.79 -782.53,-554.57l-0.43 -0.09c-337.89,-76.81 -674.84,-9.44 -946.44,161.56 -271.5,170.92 -477.79,445.27 -554.57,782.53l-0.09 0.42c-76.81,337.89 -9.44,674.85 161.56,946.45 170.92,271.5 445.27,477.78 782.54,554.56zm-32.62 146.92c756.43,171.94 1509.03,-301.89 1680.96,-1058.32 171.94,-756.43 -301.89,-1509.03 -1058.32,-1680.95 -756.43,-171.94 -1509.03,301.88 -1680.95,1058.31 -171.94,756.44 301.88,1509.03 1058.31,1680.96zm1076.8 -2046.16c-7.77,34.16 -136.4,106.34 -155.3,113.6l-49.52 -95.42c22.73,-21.48 50.68,-34.53 78.14,-51.83 26.74,-16.86 49.28,-42.22 90.03,-32.96 15.82,3.6 42.53,40.78 36.66,66.61zm-520.76 639.09l-55.41 -12.6 43.38 -190.83c26.79,-117.87 98.19,-61.67 117.81,-148.01 18.87,-83 -18.07,-94.99 -103.52,-114.18 -74.4,-16.71 -346.25,-69.53 -391.4,-101.73 -102.53,-73.13 -41.44,-251.15 28,-282.75 51.29,-23.33 196.34,-22.05 184.87,59.05 -29.19,-6.64 -47.81,-9.39 -67.21,2.16 -38.38,22.85 -84.83,151.02 14.32,173.56 165.08,37.52 143.81,-32.05 247.92,-8.39 78.12,17.76 174.32,27.26 215.4,85.94 40.51,57.85 15.69,122.09 0.32,189.69 -32.56,143.27 -166.26,47.91 -198.11,188.03l-36.38 160.05zm-160.05 -36.38l-61.56 -14 30.78 -135.44c3.28,-14.4 15.82,-22.3 30.22,-19.02l36.94 8.4 -36.38 160.05zm418.6 95.15l-153.9 -34.98 36.38 -160.06 129.28 29.39c14.42,3.28 22.31,15.81 19.04,30.23l-30.79 135.43zm-1326.04 -489.16c51.24,11.65 85.95,11.07 104.32,34.55l125.97 205.54c-51.24,-11.65 -85.95,-11.07 -104.32,-34.55l-125.97 -205.54zm172.37 39.18c56.73,12.9 75.72,8.18 94.44,35.49l123.53 201.8c-18.25,-4.14 -38.17,-7.76 -56.03,-12.19 -29.73,-7.38 -25.28,-4.13 -38.41,-23.3l-123.53 -201.8zm160.04 36.39c51.25,11.64 85.95,11.06 104.32,34.54l125.97 205.54c-51.24,-11.65 -85.95,-11.07 -104.31,-34.54l-125.98 -205.54zm1333.87 568.62c-10.85,47.76 -48.16,66.75 -96.82,55.69l-110.81 -25.19 33.59 -147.74 110.8 25.19c48.67,11.06 74.1,44.31 63.24,92.06zm-828.82 57.62l-36.94 -8.4c-14.4,-3.27 -22.3,-15.8 -19.02,-30.21l30.79 -135.44 61.56 13.99 -36.39 160.05zm424.2 70.53c-3.28,14.41 -15.81,22.3 -30.22,19.03l-129.28 -29.39 36.38 -160.04 153.9 34.98 -30.79 135.43zm-1064.97 -384.5c-26.3,24.85 -102.63,67.25 -138.58,89.89 -14.2,8.94 -56.82,38.74 -67.85,43.04 -24.43,9.55 -73.16,-8.74 -105.02,-15.98 26.3,-24.85 102.63,-67.25 138.58,-89.88 94.85,-59.72 56.38,-53.55 172.86,-27.07zm-42.39 167.27c-26.22,12.99 -47.11,0.13 -96.69,-11.14 25.81,-24.4 99.59,-65.34 134.81,-87.52 19.85,-12.49 48.65,-33.98 67.64,-43.38 26.22,-12.99 47.1,-0.13 96.69,11.14l-202.44 130.9zm374.81 -91.72c-26.3,24.86 -102.63,67.25 -138.58,89.89 -94.84,59.71 -56.38,53.55 -172.85,27.07l206.43 -132.94c24.42,-9.54 73.16,8.74 105.01,15.98zm696.71 922.3c-1.6,7.07 -20.94,25.69 -28.77,29.71 -6.64,3.42 -29.81,8.77 -37.83,6.95 -33.8,-7.68 -101.6,-128.88 -108.84,-147.74l85.9 -64.64c22.44,23.74 36.18,53.27 54.22,81.92 17.39,27.62 44.86,51.85 35.32,93.81zm-150.53 -306.12c-34.54,151.97 -207.46,88.8 -294.08,69.11 -87.65,-19.92 -88.88,-84.95 -183,-106.34 -36.46,-8.29 -67.96,-20.37 -95.55,-0.95 -22.72,16 -96.89,144.94 30.35,173.87 -24.72,78.09 -156.07,16.54 -192.23,-26.68 -50.37,-60.2 -24.9,-251.81 101.78,-267.81 54.38,-6.86 324.82,62.59 398.27,79.62 73.76,17.11 117.94,22.26 135.15,-53.46 22.42,-98.65 -68.38,-69.45 -40.85,-190.56l43.38 -190.83 55.4 12.59c-42.52,187.08 -72.49,215.29 15,285.97 75.18,60.73 44.85,134.35 26.4,215.47zm126.21 -184.95c141.51,32.17 150.43,-35.22 171.81,-129.28l190.83 43.38c91.71,20.85 181.74,-30.54 202.59,-122.28l8.4 -36.94c20.85,-91.74 -38.13,-176.98 -129.83,-197.83l-190.84 -43.37c13.21,-58.12 32.75,-105.19 -7.64,-148.17 -24.35,-25.91 -45.82,-32.31 -91.41,-42.67 35.43,-41.21 42.81,-71.13 58.13,-142.27 14.43,-67.04 2.54,-46.26 89.41,-100.96 38.32,-24.13 71.54,-44.59 109.65,-68.82 180.16,-114.56 34.26,-306.57 -89.45,-284.52 -38.51,6.86 -194.64,103.22 -223.68,130.67 -53.29,-25.89 -152.28,-41.09 -214.06,-55.13 -34.08,-7.74 -65.89,-2.68 -96.54,-2.52 13.83,-60.83 25.4,-92.7 6.2,-135.78 -45.64,-102.42 -260.37,-128.05 -352.68,-71.04 -94.66,58.47 -102.29,130.42 -124.74,229.18 -23.51,103.42 28.41,205.91 125.14,253.54 74.57,36.71 285.31,72.82 384.69,95.41 -26.55,14.23 -44.2,31.8 -59.89,64.08 -192.7,-43.8 -177.49,11.87 -226.38,226.93 -65.82,-14.97 -44.73,-8.22 -97.31,-91.72 -21.38,-33.97 -156.79,-263.86 -176.9,-268.42l-541.72 -123.14 -29.39 129.27c-7.63,33.58 165.16,241.78 157.53,275.35 -7.64,33.58 -253.44,146.62 -261.07,180.2l-29.39 129.27 541.72 123.15c29.44,6.69 336.52,-221.32 366.01,-214.61l36.94 8.39c-48.81,214.71 -86.83,258.65 106.05,302.49 0.19,35.89 8.51,59.36 26.29,83.67 -204.29,-46.44 -393.2,-130 -524.18,-36.63 -76.67,54.66 -86.79,132.7 -105.97,217.09 -15.43,67.88 5.44,131.45 33,174.39 57.65,89.85 257.86,159.35 345.23,91.22 38.16,-29.77 42.34,-65.15 56.61,-127.93 119.61,58.13 127.21,48.33 272.82,81.43 16.62,3.78 17.63,0.92 32.18,0.85 13.33,34.72 111.79,187.84 141.42,211.62 83.98,67.38 202,3.06 233.74,-77.14 32.3,-81.6 -59.21,-189.8 -93.04,-243.54 -55.61,-88.31 -55.51,-66.37 -40.88,-127.25 17.63,-73.35 25.31,-105.02 10.59,-159.63z"/>
   <path class="fil7" d="M7807.36 3294.89c756.43,-171.93 1230.26,-924.52 1058.31,-1680.96 -171.92,-756.43 -924.52,-1230.26 -1680.95,-1058.31 -756.43,171.92 -1230.27,924.52 -1058.32,1680.95 171.93,756.43 924.53,1230.27 1680.96,1058.32zm-32.61 -146.92c337.26,-76.77 611.61,-283.06 782.53,-554.56 171,-271.6 238.37,-608.55 161.56,-946.45l-0.09 -0.42c-76.78,-337.26 -283.07,-611.61 -554.56,-782.53 -271.61,-171 -608.56,-238.37 -946.45,-161.56l-0.43 0.09c-337.25,76.78 -611.6,283.07 -782.53,554.56 -171,271.61 -238.37,608.56 -161.56,946.45l0.1 0.43c76.77,337.25 283.06,611.6 554.56,782.53 271.6,171 608.55,238.37 946.45,161.56l0.42 -0.1zm-912.03 -1875.01c-18.18,-16.59 -33.1,-17.81 -39.83,-47.41l-7.4 -32.58 110.75 -25.17 -63.52 105.16zm148.21 -124.41c51.3,-11.66 79.68,-1.17 121.71,-7.11 -1.59,42.51 -84.33,127.84 -107.79,188.93l-111.05 -36.42c8.31,-21.64 76.62,-140.74 97.13,-145.4zm181.7 8.33c48.59,12.39 141.11,60.62 177.49,95.01l-131.29 213.21 -175.24 -107.61 129.04 -200.61zm223.51 123.98l155.1 94.93c-74.84,79.83 -123.05,146.11 -269.22,179.34 -8.24,-16.97 -16.63,-32.19 -24.88,-49.16l138.99 -225.11zm278.84 164.39c35.05,154.18 70.14,308.35 105.15,462.54 33.36,146.95 71.4,237.91 32.45,405.62 -27.6,118.88 -88.46,204.2 -182.2,281.64 -112.25,92.72 -242.28,121.25 -385.33,153.75 8.92,-20.59 11.79,-15.73 27.77,-32.75 132.51,-141.12 176.65,-394.17 133.01,-586.16 -65.59,-288.55 -161.27,-257.4 -202.85,-440.33 284.11,-64.58 286.98,-48.55 472.01,-244.31zm270.35 -287.55c42.46,186.75 84.91,373.51 127.36,560.27 39.25,172.62 95.66,353.23 79.04,524.26 -14.66,150.83 -72.52,264.85 -174.31,370.34 -134.88,139.75 -300.41,202.48 -488.35,245.2 -76.56,17.41 -296.84,14.41 -352.98,-15.68 196.16,-44.59 337.24,-73.12 475.33,-158.49 188,-116.22 276.95,-294.6 274.62,-513.74 -0.6,-56.32 -22.08,-196.16 -34.79,-250.77 -41.37,-177.78 -81.01,-356.23 -121.48,-534.24 49.38,-52.25 169.57,-187.59 215.56,-227.14zm52.41 -251.71c-7.11,7.53 -363.87,391.03 -376.36,393.86 -21.65,4.93 -268.06,-161.22 -291.51,-175.38l-76.24 -38.52c-28.92,-11.6 -51.68,-20.49 -81.92,-29.48 -53.09,-15.77 -128.29,-29.47 -197.97,-13.63l-306.2 69.6 78.49 345.28c175.68,-39.93 183.63,-60.24 311.16,20.06 35.38,22.27 82.78,47.32 109.28,85.68 21.24,30.73 -24.9,30.46 -97.95,47.06 70.96,312.16 173.13,279.42 225.66,510.51 52.07,229.04 -5.77,496.99 -221.72,625.2 -76.28,45.29 -159.3,64.33 -266.86,88.78 51.48,44.7 315.8,113.22 405.63,127.14 232.04,35.93 481.04,-17.47 681.13,-135.15 77.78,-45.76 140.97,-98.48 198.95,-159.44 292.64,-307.76 138.52,-740.55 57.49,-1097.04 -50.35,-221.5 -100.7,-443 -151.05,-664.51zm-343.76 1290.82c8.54,37.57 -33.95,85.26 -61.84,94.21 -31.66,10.17 -86.93,-25.29 -94.52,-58.67 -7.44,-32.75 27.65,-88.5 60.41,-95.95 32.76,-7.44 88.5,27.65 95.95,60.41zm39.09 -8.88c-12.92,-56.83 -87.1,-103.53 -143.92,-90.61 -56.82,12.91 -103.53,87.09 -90.61,143.91 12.92,56.82 87.1,103.53 143.92,90.62 56.82,-12.93 103.53,-87.11 90.61,-143.92zm-120.54 -349.43c2,8.82 -13.73,45.37 -19.59,54.66 -51.04,80.98 -131.87,2.4 -138.25,-25.63 -7.45,-32.76 27.65,-88.51 60.41,-95.96 37.27,-8.47 88.56,27.9 97.43,66.93zm37.61 -15.4c-12.91,-56.83 -87.1,-103.53 -143.91,-90.61 -56.83,12.91 -103.53,87.1 -90.62,143.91 12.92,56.83 87.1,103.53 143.92,90.61 56.82,-12.92 103.53,-87.09 90.61,-143.91z"/>
   <path class="fil7" d="M5310.66 4335.77l0.25 -0.2c270.39,-215.9 427.67,-521.02 463.38,-839.77 35.74,-319 -50.18,-651.62 -266.2,-922.3l-0.21 -0.26c-215.9,-270.39 -521.02,-427.68 -839.77,-463.39 -319,-35.73 -651.63,50.19 -922.31,266.22l-0.25 0.19c-270.39,215.9 -427.68,521.03 -463.39,839.77 -35.73,319.01 50.19,651.65 266.23,922.33l0.19 0.24c215.89,270.39 521.02,427.67 839.77,463.38 319,35.74 651.63,-50.18 922.31,-266.21zm94 117.74c606.19,-484.03 705.2,-1367.83 221.16,-1974.02 -484.03,-606.19 -1367.83,-705.19 -1974.02,-221.16 -606.18,484.03 -705.19,1367.83 -221.16,1974.02 484.03,606.19 1367.83,705.2 1974.02,221.16zm-895.94 -2037.84c-115.63,92.34 -152.19,219.34 -185.05,351.36l-50.69 362.37c-2.38,49.37 -11.04,95.77 -10.06,144.48l-0.27 291.17 -159.98 20.1c-18.71,1.39 -30.98,0.15 -49.55,9.01 -13.4,-19.98 -9.38,-46.97 -10.32,-78.01l21.36 -531.48c25.32,-103.71 15.51,-147.72 62.94,-296.29 17.93,-56.15 31.57,-93.02 59.93,-146.97 60.08,-114.33 80.45,-122.22 176.18,-198.66 64.88,-51.81 151.22,-38.36 203.26,26.82l-57.75 46.11zm-118.32 1236.5c9.46,11.85 7.02,80.72 16.77,103 -22.44,15.05 -40.07,10.68 -62.2,13.63 -47,6.3 -390.64,48.65 -409.25,42.75 -10.85,-22.78 -13.75,-85.67 -15.87,-110.99 41.24,-7.8 79.02,-10.05 119.01,-15.34l295.09 -34.57c35.92,-3.46 45.25,-12.49 56.45,1.52zm667.05 -394.43c8.17,10.24 7.55,15.8 -2.68,23.97 -65.19,52.06 -107.4,102.36 -126.13,78.9 -30.26,-37.89 -47.79,-49.14 -29.24,-63.95 135.1,-107.88 103.66,-107.04 158.04,-38.92zm-147.57 234.22c8.17,10.24 7.55,15.8 -2.69,23.97 -61.36,49 -94.79,90.82 -112.8,68.25 -30.26,-37.88 -47.79,-49.12 -29.24,-63.94 119.78,-95.64 91.02,-95.54 144.72,-28.28zm-173.27 174.72c-32.48,41.17 -143.47,157.51 -191.6,196.94l-142.46 113.47c-8.89,-18.64 -7.19,-31.69 -10.61,-49.73 85.23,-68.05 281.51,-235.89 312.76,-300.65l31.92 39.97zm459.17 -235.7c20.75,25.98 -24.24,88.7 -129.91,76.56 -90.28,-10.37 -73.74,-3.66 -122.22,-64.37 92.83,-74.13 57.8,-60.22 155.17,-49.35 67.18,7.5 69.55,2.83 96.95,37.16zm-910.33 435.92c10.63,22.29 8.29,28.83 9.53,49.6 3.27,55.13 42.93,311.18 36.28,335.71 -25.75,12.29 -121.47,13.81 -164.25,22.06 -78.56,15.15 -50.21,2.35 -77.22,-190.66l-15.11 -143.25c-2.67,-17.43 -5.29,-27.91 -6.75,-45.25 56.42,-10.68 148.45,-15.12 217.52,-28.2zm555.05 -224.97c99.79,-79.7 63.42,-71.77 164.5,-60.44 28.58,3.2 51.31,5.75 79.89,8.95 70.82,7.93 60.29,-4.21 92.96,36.7 13.04,16.34 1.16,20.9 -20.45,38.16 -70.82,56.55 -243.77,8.44 -316.9,-23.37zm441.23 -39.55l-42.56 -53.3c105.4,-84.17 89.5,-97.44 13.49,-192.62 -25.52,-31.96 -55.03,-32.53 -84.3,-41.81 -3.5,-84.17 47.04,-13.97 -95.7,-192.72 -25.28,-31.65 -71.43,-30.25 -104.75,-3.65l-155.47 124.14c-52.55,41.97 -34.66,84.14 -5.43,120.74l-142.14 113.5c-77.78,62.1 42.3,75.34 -164.45,240.42 -17.32,-36.32 -3.45,-104.53 -29.17,-136.74 -27.31,-34.2 -70.07,-41.63 -102.06,-27.62 -8.75,-18.33 -6.88,-15.41 -6.6,-33.09 0.19,-12.73 -0.11,-19.81 0.24,-32.33l28.03 -506.47 27.53 -166.78c5.18,-23.74 9.84,-42.71 15.2,-67.06l18.62 -66.67c52.96,-161.01 111.52,-184.91 250.07,-295.55 -60.17,-75.35 -121.5,-146.17 -216.67,-159.9 -34.4,-4.96 -52.6,-6.6 -88.93,-0.49 -105.66,17.8 -233.16,161.94 -279.95,244.44 -102.54,180.75 -113.77,296.9 -150.32,476.59 -29.49,144.9 -30.16,519.41 -18.94,653.09 -45.39,8.59 -59.42,-3.48 -104.78,32.75 -35.67,28.48 -18.06,86.71 -14.63,123.74 9.71,104.74 11.19,177.99 141.31,153.35 8.06,18.38 5.76,34.25 7.71,53.44 6.39,62.9 37.98,359.07 53.15,378.06 47.62,59.64 90.08,34.4 187.11,26.63 38.35,-3.07 158.59,-11.71 185.74,-33.39 51.88,-41.42 25.45,-104.67 17.68,-180.02 -2.37,-22.98 -2.54,-38.9 -6.81,-61.43 137,-109.39 273.02,-206.02 382.03,-342.03 31.93,-39.85 40.77,-8.95 124.5,8.68 39.31,8.28 63.99,10.9 103.42,15.44 185.99,21.4 311.82,-103.72 257.83,-171.32z"/>
   <path class="fil7" d="M3601.77 6476.84l0.37 -0.75c150.49,-311.96 160.31,-655.33 54.55,-958.3 -105.67,-302.63 -326.79,-565.05 -638.36,-715.61l-0.77 -0.37c-311.96,-150.49 -655.33,-160.31 -958.3,-54.55 -302.63,105.67 -565.05,326.79 -715.61,638.36l-0.36 0.77c-150.5,311.96 -160.32,655.33 -54.56,958.3 105.67,302.63 326.8,565.05 638.38,715.61l0.75 0.37c311.96,150.49 655.33,160.31 958.3,54.55 302.64,-105.67 565.06,-326.8 715.61,-638.38zm136 64.71c337.07,-698.67 43.93,-1538.29 -654.75,-1875.36 -698.67,-337.07 -1538.29,-43.93 -1875.35,654.75 -337.07,698.67 -43.93,1538.29 654.74,1875.36 698.67,337.06 1538.29,43.93 1875.36,-654.75zm-1692.76 -1381.73l-75.45 156.39 -78.21 -37.73 75.46 -156.39 78.2 37.73zm144.36 69.65l-75.45 156.39 -84.22 -40.63 75.45 -156.39 84.22 40.63zm82.43 336.38c-31.54,65.39 -37.23,100.68 -64.48,87.54 -95,-45.83 -86.89,-19.71 -31.76,-133.98l96.24 46.44zm217.02 -495.95c13.85,6.69 16.02,12.9 9.34,26.75l-197.34 409.05 -96.24 -46.43 197.32 -409.05c12.39,-25.67 31.8,-6.9 86.92,19.68zm843.47 710.94c78.85,38.04 120.82,133.85 83.64,210.9l-8.71 18.05 -992.52 -478.83 75.45 -156.39 842.15 406.28zm61.37 -96.46l-854.18 -412.09c117.68,-243.93 137.5,-237.69 -85.55,-345.29 -122.11,-58.91 -160.08,85.9 -215.22,200.19l-324.83 -156.7 -174.11 360.93 324.83 156.7c-88.99,184.44 -78.3,184.68 117.46,279.12 113.13,54.58 149.58,-64.14 183.3,-134.03l1094.79 528.15c36.99,-76.68 75.99,-139.35 80.37,-223.13 5.61,-107.25 -46.16,-205.28 -146.85,-253.86zm-1031.3 370.07c48.59,39.16 67.38,53.11 103.08,99.07 19.44,25.04 24.19,32.11 36.69,57.23 56.87,114.31 57.93,193.4 28.36,325.24l-90.23 -43.53 -49.34 102.26 90.24 43.54c-39.16,48.58 -53.11,67.37 -99.08,103.07 -25.03,19.45 -32.11,24.2 -57.22,36.69 -61.26,30.48 -110.25,46.54 -183.54,47.38 -58.2,0.66 -80.82,-5.36 -141.69,-19.02l37.72 -78.2 -102.26 -49.33 -37.73 78.2c-91.18,-73.49 -108.11,-93.58 -153.86,-186.38 -45.5,-92.3 -36.52,-195.85 -14.26,-295.15l90.24 43.53 49.33 -102.27 -90.23 -43.53c73.49,-91.18 93.58,-108.11 186.38,-153.86 92.29,-45.5 195.84,-36.53 295.15,-14.26l-37.73 78.21 102.27 49.33 37.72 -78.2zm28.18 -119.89c-160.27,-77.32 -286.31,-92.67 -438.92,-39.38 -278.37,97.19 -429.49,410.45 -332.31,688.82 97.19,278.36 410.45,429.47 688.81,332.3 278.37,-97.19 429.49,-410.45 332.3,-688.81 -34.45,-98.69 -119.84,-230.19 -249.87,-292.93zm-81.41 368.57c19.49,9.41 23.48,43.56 12.88,65.54l-101.58 210.54c-10.61,21.98 -39.81,40.11 -59.31,30.71l-234.59 -113.19c-19.49,-9.4 -23.49,-43.55 -12.88,-65.53l101.57 -210.53c10.6,-21.98 39.82,-40.12 59.31,-30.72l234.6 113.18zm-163.47 -153.01c-105.08,-50.69 -159.12,-23.68 -208,77.63 -34.64,71.8 -115.17,207.34 -89.72,266.42 13.8,32.05 48.69,62.31 91.68,83.05 188.64,91 276.47,164.72 358.39,-5.08 34.63,-71.8 115.17,-207.33 89.72,-266.42 -29.52,-68.54 -161.91,-116.93 -242.06,-155.59z"/>
   <path class="fil7" d="M2994.84 9143.67c0,-346.19 -140.31,-659.61 -367.17,-886.45 -226.84,-226.85 -540.26,-367.17 -886.45,-367.17 -346.19,0 -659.61,140.31 -886.45,367.17 -226.85,226.84 -367.18,540.26 -367.18,886.45 0,346.19 140.32,659.61 367.18,886.45 226.84,226.85 540.26,367.17 886.45,367.17 346.19,0 659.61,-140.31 886.45,-367.17 226.85,-226.84 367.17,-540.26 367.17,-886.45zm150.96 0c0,-775.73 -628.86,-1404.58 -1404.58,-1404.58 -775.73,0 -1404.58,628.85 -1404.58,1404.58 0,775.73 628.85,1404.58 1404.58,1404.58 775.72,0 1404.58,-628.85 1404.58,-1404.58zm-1986.95 312.57l-111.87 0c-20.97,78.53 -177.67,93.38 -177.67,-46.07 0,-104.6 135.43,-122.73 228.77,-44.53l100.25 70.85c-0.89,39.71 -16.89,57.87 -19.74,92.13 -43.7,-11.67 -19.74,-29.3 -19.74,-72.38zm19.74 -697.53c2.85,34.27 18.85,52.42 19.74,92.13 -17.33,11.6 -32.84,21.29 -50.79,34.75 -73.49,55.1 -97.25,83.7 -186.11,83.7 -124.15,0 -124.15,-197.41 0,-197.41 44.64,0 76.16,24.05 85.56,59.23l111.87 0c0,-24.47 -6.24,-35.35 -5.45,-46.85 1.9,-27.81 11.94,-18.58 25.19,-25.54zm296.12 473.79c110.3,0 -32.81,411.12 -41.3,432.49 -93.15,234.45 -242.16,231.9 -271.42,196.08 -8.54,-10.46 -9.73,-13.36 -9.73,-29.76 0,-133.8 91.45,-146.4 134.44,-313.04 27.31,-105.86 10.69,-109.97 26.27,-184.3 22.36,-106.67 93.81,-101.48 161.74,-101.48zm-250.06 -822.56c104.31,0 179.26,137.39 210.66,217.07 13.97,35.47 120.76,363.2 65.91,414.85 -19.74,18.58 -42.13,12.97 -79.15,12.97 -138.47,0 -108.18,-193.2 -135.76,-285.4 -48.05,-160.63 -134.06,-208.06 -134.06,-287.1 0,-64.32 7.69,-72.39 72.39,-72.39zm1237.14 1204.23c50.24,0 101.44,-11.51 129.06,-48.61l22.29 -30.36c0,91.65 -70.36,245.56 -120.25,287.74 -102.55,86.7 -144.34,64.93 -282.98,70.45 -14.4,0.58 -15.39,-1.57 -37.45,-2.61 -206.74,-9.69 -386.4,-70.42 -568.03,-143.1 -23.99,-9.61 -49.55,-18.17 -70.5,-28.22 18.08,-77.58 58.94,-160.85 65.81,-243.47 33.86,2.82 63.12,20.14 94.45,30.59 240.72,80.27 506.17,107.6 767.6,107.6zm-927.86 -1046.29c168.41,-80.81 453.78,-162.66 638.53,-171.33 83.09,-3.89 198.08,-9.39 267.66,28.49 19.96,10.88 14.44,9.23 30.39,22.26 12.44,10.16 14.1,9.38 25.92,20.14 47.87,43.54 116.71,194.13 116.71,284.7 -6.76,-7.78 1.54,3.03 -8.89,-10.85l-16.17 -23.31c-10.61,-13.22 -18.72,-17.91 -33.72,-25.5 -99,-50.1 -498.14,4.39 -569.21,17.33 -95.9,17.45 -204.17,40.63 -295.89,72.61 -29.8,10.4 -56.8,26.22 -89.52,28.95 -6.87,-82.63 -47.73,-165.89 -65.81,-243.48zm809.4 -282.96c-297.09,0 -425.37,13.28 -705.1,117.46 -29.87,11.12 -50.84,19.1 -80.79,31.08 -23.85,9.54 -58.92,27.15 -82.73,29.14 -92.77,-138.55 -156.5,-164.51 -315.86,-164.51 -129.67,0 -141.68,176.8 -92.16,282.99 12.74,27.31 38.66,51.12 46.09,78.94 -41.12,10.98 -17.31,29.71 -68.39,9.72 -130.23,-50.96 -286.95,22.99 -286.95,174.53 0,68.27 1.22,135.06 54.66,188.8 31.49,31.67 96.58,54.67 155.91,54.67 126.64,0 161.58,-75.11 243.47,-118.45 0.9,40.32 20.72,78.83 37.18,107.6 10.22,17.85 18.91,26.09 33.54,38.85l30.31 22.33c12.89,9.76 3.9,2.87 10.84,8.9 -53.65,14.33 -110.35,103.2 -111.87,171.09 -94.53,-50.02 -108.22,-118.45 -256.64,-118.45 -108.52,0 -197.4,79.78 -197.4,190.83 0,67.88 2.55,142.1 58.08,191.98 53.42,48 149.17,66.38 228.87,35.19 51.08,-19.99 27.27,-1.26 68.39,9.72 -19.05,71.35 -72.38,50.46 -72.38,223.74 0,139.34 105.49,138.19 177.66,138.19 129.68,0 204.24,-86.27 256.64,-164.51 23.6,1.96 56.11,18.5 78.03,27.26l248.66 86.95c228.05,66.22 314.97,63.47 541.93,63.47 65.15,0 130.15,-27.86 170.86,-52.87 163.44,-100.39 210.8,-336.19 210.8,-532.79 -65.1,0 -127.82,-8.53 -178.98,31.59 -62.36,48.91 22.87,53.96 -176.35,53.96 -264.18,0 -572.98,-54.49 -743.59,-144.77 0,-76.05 13.19,-181.62 -26.33,-210.57 40.04,-59.78 26.33,-109.24 26.33,-217.15 221.57,-117.25 546.99,-144.76 848.88,-144.76 56.29,0 58.14,85.54 157.92,85.54l92.13 0c0,-198.56 -45.9,-424.91 -206.79,-530.22 -40.83,-26.72 -110.44,-55.44 -174.87,-55.44z"/>
   <path class="fil7" d="M3737.77 11745.8c-337.07,-698.67 -1176.69,-991.8 -1875.36,-654.75 -698.66,337.07 -991.8,1176.69 -654.74,1875.36 337.06,698.67 1176.68,991.81 1875.35,654.75 698.67,-337.07 991.81,-1176.69 654.75,-1875.36zm-136 64.69c-150.56,-311.56 -413,-532.7 -715.61,-638.35 -302.97,-105.78 -646.35,-95.95 -958.3,54.54l-0.75 0.37c-311.58,150.56 -532.71,412.99 -638.37,715.61 -105.78,302.97 -95.95,646.35 54.55,958.3l0.36 0.77c150.56,311.57 413,532.7 715.61,638.35 302.97,105.78 646.35,95.95 958.3,-54.54l0.77 -0.37c311.57,-150.56 532.7,-413 638.35,-715.61 105.78,-302.97 95.95,-646.35 -54.54,-958.3l-0.37 -0.77zm-2053.22 189.72l51.07 105.86 -47.64 22.98 -51.06 -105.85 47.63 -22.99zm100.04 545.46l127.03 -61.28 66.38 137.61c-30.39,11.66 -82.36,2.25 -106.92,-8.91 -32.03,-14.56 -61.86,-36.86 -86.49,-67.42zm512.29 385.71l68.94 142.9 -142.89 68.94 -68.94 -142.9 142.89 -68.94zm469.68 53.96l63.84 132.32c-75.99,29.17 -165.73,-3.39 -212.02,-60.82l148.18 -71.5zm254.28 -324.92l74.05 153.48 -243.45 117.45 -38.31 -79.39 -328.14 158.3 12.77 26.46c-16.3,7.42 -20.45,6.92 -34.31,10.03l-120.01 -248.75 -232.87 112.35c-22.79,11 -68.87,-57.29 -79.78,-74.02 -52.04,-79.78 -34.24,-67.67 -56.84,-114.53 50.99,-19.57 42.19,-0.78 139.96,-47.95l-155.74 -322.85 -132.32 63.84 -94.48 -195.83 137.61 -66.38c-92.11,-190.93 -112.76,-187 -41.55,-221.35l328.14 -158.3c79.28,-38.25 203.5,2.58 248.33,95.5l383 793.88c-87.78,39.96 -276.37,20.8 -369.9,-24.65 -232.34,-112.92 -275.69,-258.68 -385.07,-485.39 -12.91,-26.75 -6.44,-62.14 22.11,-75.91 116.61,-56.26 200.35,-125.65 247.44,-28.03l99.58 206.4 -37.05 17.87c-90.44,43.63 -143.8,-108.76 -173.67,-170.66l-89.97 43.41 35.75 74.1c110.25,228.54 248.42,154.16 398.33,81.86l-114.91 -238.16c-67.26,-139.43 -140.72,-206.13 -292.48,-132.93 -128.5,61.99 -264.1,101.7 -174.88,286.63 140.01,290.24 276.48,521.6 634.56,552.35 58.15,4.99 204.58,1.89 270.02,-29.68l164.07 -79.15zm254.04 -122.57l74.05 153.48 -164.07 79.16 -74.04 -153.48 164.06 -79.16zm-434.29 -697.36c13.06,-40.8 32.09,-85.59 47.17,-128.77 7.88,-22.57 32.9,-118.64 51.08,-127.41l31.75 -15.32c49.75,103.12 183.13,340.19 133.28,425.02l-94.47 -195.81 -100.56 48.51c-24.33,11.73 -29.91,105.77 -54.23,117.5 -63.87,30.82 -126.39,39.63 -178.75,32.98 -68.53,-8.71 -116.69,-50.34 -148.59,-116.46 -71,-147.18 215.55,-242.92 313.33,-40.25zm578.82 699.41l38.3 79.39 79.39 -38.3 43.41 89.97c-87.83,42.38 -60.75,38.22 -124.41,15.99 -74.4,-25.97 -46.79,-5.7 -125.74,-169.33 -6.45,-13.36 27.73,-111.24 41.09,-117.69l63.52 -30.64 63.83 132.32 -79.39 38.3zm-112.54 -219.73c-24.32,11.73 -29.9,105.77 -54.22,117.5l-375.78 181.29 -250.22 -518.67c19.72,-3.76 8.19,-1.12 25.97,1.26 105.2,14.08 170.8,-11.38 266.56,-57.57 16.75,-8.09 34.5,-87.21 46.2,-107.11l104.69 216.99 42.34 -20.42c74.54,-35.96 95.18,-142.53 90.65,-210.41 -10.08,-151.02 -115.63,-341.74 -185.9,-487.41l-142.89 68.94c-19.59,9.45 -54.41,149.73 -70.85,177.71 -61.02,-75.7 -230.42,-65.86 -328.18,17.45 -20.61,17.58 -22.09,28.1 -40.63,43.04 -27.54,-20.28 -20.8,-23.21 -66.15,-50.03 -65.26,-38.61 -175.41,-48.74 -250.98,-12.28l-613.94 296.18 232.35 481.62 -84.68 40.85c36.33,75.31 51.74,107.28 115.17,161.75 74.15,63.69 75.33,14.39 107.53,82.79 40.82,86.71 59.98,147.92 126.53,217.47 10.72,11.19 46.02,46.2 50.82,56.15l125.11 259.33 254.04 -122.56c17.44,-8.41 118.95,-22.05 132.92,-15.13 15.79,7.82 42.73,45.17 103.46,69.25 102.3,40.55 201.99,8.43 299.57,-38.65l-71.5 -148.19 518.67 -250.21c24.32,-11.74 101.39,42.42 125.72,30.68l174.65 -84.25 -232.34 -481.62 -174.66 84.26z"/>
   <path class="fil7" d="M5404.65 13833.83c-606.19,-484.04 -1489.99,-385.03 -1974.02,221.16 -484.03,606.19 -385.02,1489.99 221.16,1974.02 606.19,484.03 1489.99,385.03 1974.02,-221.16 484.04,-606.19 385.03,-1489.99 -221.16,-1974.02zm-93.99 117.75c-270.68,-216.03 -603.32,-301.96 -922.32,-266.22 -318.75,35.71 -623.87,192.99 -839.77,463.38l-0.19 0.23c-216.03,270.68 -301.96,603.33 -266.23,922.34 35.71,318.74 193,623.86 463.39,839.77l0.24 0.19c270.68,216.03 603.32,301.95 922.32,266.22 318.75,-35.71 623.87,-193 839.77,-463.39l0.21 -0.26c216.01,-270.67 301.94,-603.3 266.2,-922.3 -35.71,-318.75 -192.99,-623.87 -463.38,-839.77l-0.24 -0.19zm-1562.29 1085.84l72.55 57.92 -136.54 170.99 -72.54 -57.93 136.53 -170.98zm-173.19 -282.55c56.94,-44.93 226.98,-98.78 255.71,-75.84l321.26 256.52c19.22,15.35 14.74,105.87 12.89,130.67 -3.12,41.83 -10.29,93.65 -30.25,135.5l-559.61 -446.84zm328.18 -102.83c27.36,-34.26 128.77,-117.72 167.18,-150.05l509.54 -421.15c-22.03,27.59 -40.79,71.93 -55.57,100.59 -45.02,87.28 -325.97,632.27 -362.08,677.5l-259.08 -206.87zm-462.81 80.17l-28.97 36.27 248.71 198.6 -206.86 259.07 248.71 198.6 206.87 -259.08 248.71 198.6c55.86,-69.95 73.5,-102.66 93.07,-194.43 11.51,-54.04 17.07,-105.39 11.42,-156.97 -2.06,-18.77 -1.27,-18.68 -1.12,-37.62 0.13,-16.7 -2.4,-23.54 -1.96,-37.53 1.36,-43.21 329.64,-642.6 376.8,-731.04l86 -165.33 -145.08 -115.85 -559.71 478.68c-46.62,39.19 -91.6,78.43 -137.81,117.58 -53.75,45.53 -57.6,56.7 -148.17,67.07 -48.7,5.57 -98.66,21.75 -146.07,43.79 -41.56,19.33 -108.82,54.88 -144.52,99.6zm1976.18 373.05c-66.72,-53.27 -69.75,-9.85 -148.1,-16.43 7.12,-84.78 -7.5,-107.82 -43.62,-136.66l-20.69 25.91c-12.35,15.47 2.71,99.07 8.4,117.02 -80.96,25.65 -104.52,-17.9 -159.43,50.88l25.91 20.69c15.76,12.58 116.38,-4.37 135.65,-10.48 25.66,80.95 -17.88,104.52 50.89,159.43 54.92,-68.78 7.24,-82.13 14.35,-166.74 84.78,7.12 107.82,-7.5 136.66,-43.62zm-1050.65 476.29l728.19 -911.96c16.76,-21 95.93,9.62 121.19,28.88l-794.39 994.86 -46.64 -37.24c-12.6,-10.06 -18.41,-61.96 -8.35,-74.55zm905.33 -846.89c137.72,109.97 89.24,161.93 181.25,319.39 69.9,119.61 107.43,31.08 -65.78,247.99 -24.32,30.46 -130.7,1.74 -165.69,37.15l-330.91 415.29c-26.14,33.38 -20.27,33.14 -52.5,36.74l-158.49 17.09c-121.87,13.66 -74.05,32.1 -206.4,-73.59l798.52 -1000.05zm-578.86 12.96c147.12,-184.24 116.31,-169.29 168,-142.76 46.8,24.03 111.08,39.77 161.21,49.27l-670.27 839.42c-8.65,-27.29 -7.99,-53.98 -11.8,-83.61 -6.86,-53.34 -10.25,-38.56 34.34,-93.5l311.17 -388.71c26.19,-34.17 17.54,-26.23 10.27,-90.8 -2.22,-19.69 -15.3,-73.83 -2.93,-89.32zm98.1 -303.5l-198.88 248.75c-17.76,27.79 -5.56,53.23 -2.49,80.48 10.33,91.67 24.8,61.99 -50.86,156.67l-269.01 336.81c-50.16,61.79 -41.06,32.92 -26.96,158.71 4.3,38.38 24.67,289.11 40.92,302.09 294.04,234.78 202.03,201.47 388.25,180.6l228.35 -25.29c43.59,-3.8 34.82,-2.91 70.1,-48.09l268.92 -336.96c78.76,-98.66 50.45,-78.85 145.67,-89.46 86.65,-9.65 56,6.91 139.96,-98.25 45.51,-57 91.03,-114 136.54,-170.99 -254.43,-240.3 -96.51,-314.65 -340.14,-509.18 -39.28,-31.37 -95.32,-52.77 -134.35,-62.13 -83.09,-19.94 -56.56,-10.85 -129.36,-17.61 -90.04,-8.36 -172.47,-42.99 -266.67,-106.17z"/>
   <path class="fil7" d="M7774.75 15139.37l-0.42 -0.1c-337.89,-76.8 -674.85,-9.43 -946.45,161.56 -271.5,170.93 -477.78,445.27 -554.56,782.54l-0.1 0.42c-76.8,337.89 -9.43,674.84 161.56,946.44 170.93,271.5 445.27,477.79 782.54,554.57l0.42 0.09c337.89,76.81 674.84,9.44 946.44,-161.56 271.5,-170.92 477.79,-445.27 554.57,-782.53l0.09 -0.42c76.81,-337.89 9.44,-674.85 -161.56,-946.45 -170.92,-271.5 -445.27,-477.78 -782.53,-554.56zm32.61 -146.92c-756.43,-171.94 -1509.03,301.89 -1680.96,1058.32 -171.94,756.43 301.89,1509.03 1058.32,1680.95 756.43,171.94 1509.03,-301.88 1680.95,-1058.31 171.94,-756.44 -301.88,-1509.03 -1058.31,-1680.96zm-1068.18 2036.37c28.47,-89.94 116.24,-77.06 145.88,-207.48l13.33 -58.68 217.09 49.35c-29.89,131.51 -30.82,255.65 -163.45,259.43 -51,1.46 -152.04,-28.8 -212.85,-42.62zm1235.33 -521.34l211.21 48.01 -100.02 440.03c-7.05,31.01 -55.93,72.11 -84.25,89.8l-10.97 6.52c-48.9,28.29 -90.15,34.32 -153.34,19.95l137.37 -604.31zm-310.96 -70.69l211.22 48.01 -137.37 604.32c-126.45,-28.74 -186.03,-158.81 -173.88,-212.29l100.03 -440.03zm-883.29 194.12c10.74,-22.1 101.25,-111.93 124.02,-138.41l305.09 69.35c0.24,44.36 45.95,142.11 46.14,177.08l-475.24 -108.03zm18.68 -489.37l117.36 26.67 -26.68 117.35 146.67 33.34 26.68 -117.35 123.21 28.01 -26.67 117.34 146.68 33.35 26.67 -117.35 117.34 26.67 -48.01 211.22 -651.26 -148.03 48.01 -211.21zm318.18 -341.09l217.08 49.35 -66.69 293.35 -217.07 -49.34 66.68 -293.36zm986.74 137.91c35.33,17.17 69.26,28.52 101.28,46.85 72.03,41.22 90.62,81.27 148.28,122.83 20.42,14.73 63.97,41.24 89.4,49.29 -18.81,82.78 -31.27,129.65 -92.12,197.05 -27.63,30.6 -114.1,107.79 -148.17,100.04l-205.35 -46.68 106.69 -469.37zm-500.04 28.26c61.97,8.76 146.84,-14.44 195.12,-33.46 75.36,-29.69 138.8,-17.11 205.18,-17.47l-106.7 469.37 -205.34 -46.68c-32.32,-7.35 -80.82,-114.02 -91.65,-158.48 -23.19,-95.22 -17.19,-122.79 3.38,-213.28zm-691.52 -323.79c10.34,-45.52 44.59,-89.86 69.17,-113.73 36.32,-35.27 64.83,-40.02 103.92,-50.55l-96.02 422.43 -129.09 -29.34 52.02 -228.82zm246.15 -24.26l287.49 65.35 -18.67 82.15 -287.49 -65.36 18.67 -82.14zm-341.9 -16.01l-78.68 346.16 228.81 52.01 -16 70.41 -228.82 -52.01 -93.36 410.71 152.55 34.67c-32.4,37.67 -71.05,74.91 -105.87,111.34 -35.15,36.78 -71.44,72.69 -105.37,112.15l228.82 52.01c-39.73,174.79 -40.85,104.61 -104.26,177.78 -41.87,48.31 -62.5,121.51 -77.64,188.11l287.49 65.35c130.29,29.61 245.36,-47.94 274.96,-178.14l36.01 -158.41 205.35 46.68c-26.04,-96.64 -69.37,-201.89 -93.87,-292.82l152.54 34.67 66.69 -293.36c15.37,16.27 9.04,20.51 29.87,31.47 -19.32,84.96 -118.82,476.48 -113.26,523.78 14.08,119.69 92.75,267.53 240.44,301.1l123.21 28c147.68,33.58 282.54,-65.74 346.98,-167.57 25.46,-40.25 104.98,-436.31 124.29,-521.27 54.03,-2.02 136.64,-103.16 168.77,-155.14 54.4,-88 66.81,-148.33 95,-272.35 -224.12,-70.94 -181.25,-116.71 -313.87,-204.59 -114.92,-76.16 -330.69,-112.32 -465.45,-51.04 -72.3,32.88 -158.64,33.8 -259.16,19.58 -14.38,63.28 -28.89,120.02 -33.83,177.15 -7.91,91.49 7.14,105.84 7.41,156.2l-129.08 -29.34 66.69 -293.35 70.41 16 64.01 -281.62 -387.24 -88.02 30.68 -134.95c-170.12,-38.68 -355.33,43.05 -395.25,218.67zm841.11 1104.39l99.75 22.67 45.34 -199.48 -99.74 -22.67 -45.35 199.48zm316.83 72.02l99.75 22.67 45.34 -199.48 -99.74 -22.68 -45.35 199.49zm98.69 -434.17l99.75 22.68 45.34 -199.49 -99.74 -22.67 -45.35 199.48zm-316.83 -72.02l99.75 22.68 45.34 -199.49 -99.74 -22.67 -45.35 199.48z"/>
   <path class="fil7" d="M10479.98 14992.45c-756.43,171.93 -1230.26,924.52 -1058.31,1680.96 171.92,756.43 924.52,1230.26 1680.95,1058.31 756.43,-171.92 1230.27,-924.52 1058.32,-1680.95 -171.93,-756.43 -924.53,-1230.27 -1680.96,-1058.32zm32.61 146.92c-337.26,76.77 -611.61,283.06 -782.53,554.56 -171,271.6 -238.37,608.55 -161.56,946.45l0.09 0.42c76.78,337.26 283.06,611.61 554.56,782.53 271.61,171 608.56,238.37 946.45,161.56l0.43 -0.09c337.25,-76.78 611.61,-283.07 782.53,-554.56 171,-271.61 238.37,-608.56 161.56,-946.45l-0.1 -0.43c-76.77,-337.25 -283.06,-611.6 -554.56,-782.53 -271.6,-171 -608.55,-238.37 -946.45,-161.56l-0.42 0.1zm484.89 2006.88l6.86 30.17 78.41 -17.83 34.28 150.8c3.16,13.89 -0.08,19.04 -13.98,22.21l-211.12 47.98c-13.9,3.16 -19.05,-0.08 -22.21,-13.98l-34.28 -150.79 90.49 -20.57c-7.83,-34.42 -15.52,-40.35 -23.86,-77.05l-45.24 -199.05 84.44 -19.19c15.95,70.15 25.72,84.9 33.9,119.14l22.32 128.17zm588.9 -1148.82l29.9 131.55c0.23,15.62 -3.59,29.15 -13.56,44.15 -53.21,80.09 -100.42,158.98 -151.7,240.45 -94.57,150.19 -65.18,137.43 -153.03,156.91 -32.19,7.14 -64.37,14.61 -96.53,21.92l-56.22 -247.3 -72.39 16.45c21.49,94.5 42.97,189 64.45,283.5 44.39,195.27 25.12,74.66 -31.8,222.9l-84.45 19.2 42.51 186.98c91.78,-20.86 83.74,-27.24 94.46,22.38l58.02 254.53c5.99,27.27 10.61,31.77 -10.94,39.81l-380.52 86.5c-18.78,-4.89 -21.4,-41.7 -49.73,-166.31l-72.38 16.45 -82.27 -361.91 -84.44 19.19 -53.48 -235.24 84.45 -19.2 -34.28 -150.78 -84.45 19.19 17.82 78.42c-146.12,33.22 -191.61,7.82 -120.01,157.78 31.7,66.4 121.37,114.28 174.31,115.39l54.01 203.34c-78.37,17.81 -157.07,35.1 -235.27,53.53 -68.35,16.12 -46.52,13.88 -94.97,-5.14 -67.28,-26.41 -175.69,-64.18 -214.95,-126.54 -31.7,-50.37 -64.8,-106.47 -93.55,-163.38 -5.07,-10.04 -14.64,-43.47 -27.02,-92.01l-187.23 -823.74 482.54 -109.68 -19.19 -84.46 723.81 -164.52 53.48 235.24 78.41 -17.82 -78.15 -343.82 488.58 -111.06 135.74 597.15zm-1006.48 818.72c107.86,-24.51 91.24,10.67 47.43,-182.05l96.52 -21.93c28.51,125.46 184.61,119.52 221.68,36.19 39.63,-89.11 -45.17,-76.32 85.94,-106.12l54.84 241.27 -488.57 111.07 -17.83 -78.43zm312.83 -242.38c4.37,30.93 -2.76,57.73 -35.92,65.26 -33.15,7.54 -51.17,-13.54 -60.59,-43.32l96.51 -21.94zm165.57 -1001.84l325.73 -74.04 139.84 615.25c4.45,19.6 -45.49,84.55 -57.38,103.44 -11.37,18.08 -20.54,35.31 -33.37,51.35 -16,20 -20.08,21.83 -31.85,47.15l-129.09 197.82 -213.89 -940.97zm-58.11 469.94l72.38 -16.45 37.02 162.86 -72.38 16.44 -37.02 -162.85zm-719.44 -179.01l566.99 -128.89 165.9 729.86 -404.14 91.86 -17.83 -78.42 -162.85 37.02 -32.91 -144.76c-7.24,-31.87 -72.42,-2.57 -160.94,17.56l-37.02 -162.86 156.82 -35.65 -74.03 -325.72zm-112.4 621.84l156.82 -35.65 37.02 162.86 -156.82 35.64c24.99,109.97 38.58,214.56 114.88,301.91 30.97,35.45 92.54,56.24 135.19,72.62 8.01,35.24 15.61,40.77 22.48,71.01 -168.96,38.41 -169.77,60.57 -278.47,7.21 -105.26,-51.68 -175.45,-134.41 -205.18,-265.2l-176.86 -778.1 398.1 -90.5 37.02 162.86 -156.82 35.65 72.67 319.69zm614.7 -114.36c-52.35,11.9 -100.54,-78.64 -3.84,-100.62 37.3,-8.48 87.12,81.69 3.84,100.62zm-125.03 -47.7l8.23 36.19c26.28,115.63 210.27,99.58 230.17,-10.15 9.34,-51.5 -11.1,-100.06 -45.51,-127.19 -78.63,-62.01 -212.65,14.2 -192.89,101.15zm48.25 -290.08c-52.35,11.9 -100.54,-78.65 -3.84,-100.63 37.3,-8.48 87.12,81.7 3.84,100.63zm-125.03 -47.71l8.22 36.19c26.29,115.63 210.28,99.58 230.18,-10.15 9.35,-51.5 -11.11,-100.05 -45.51,-127.18 -78.64,-62.02 -212.66,14.19 -192.89,101.14z"/>
   <path class="fil7" d="M12976.67 13951.58l-0.24 0.19c-270.39,215.9 -427.67,521.02 -463.38,839.77 -35.74,319 50.18,651.63 266.21,922.32l0.2 0.24c215.9,270.39 521.02,427.68 839.77,463.39 319,35.73 651.62,-50.18 922.3,-266.2l0.26 -0.21c270.39,-215.9 427.68,-521.03 463.39,-839.77 35.73,-319 -50.19,-651.64 -266.22,-922.31l-0.2 -0.26c-215.89,-270.39 -521.02,-427.67 -839.77,-463.38 -319,-35.74 -651.64,50.18 -922.32,266.22zm-93.99 -117.75c-606.19,484.03 -705.2,1367.83 -221.16,1974.02 484.03,606.19 1367.83,705.19 1974.02,221.16 606.18,-484.03 705.19,-1367.83 221.16,-1974.02 -484.03,-606.19 -1367.83,-705.2 -1974.02,-221.16zm1607.83 1884.76l-111.16 88.76 -46.3 -58c143.55,-114.63 115.66,-112.84 160.37,-56.83 8.89,11.13 8.22,17.18 -2.92,26.07zm-1882.57 -831.37l566.66 -452.46c11.75,-6.64 19.96,-3.6 51.64,0.28 43.84,5.38 145.88,21.41 182.76,18.31 7.38,-23.29 22.53,-158.82 21.47,-186.8 -0.82,-21.68 1.05,-33 7.5,-42.09l566.6 -452.43c59.7,89.02 16.43,119.88 206.35,357.55 50.58,63.29 84.72,116.66 138.07,182.68 28.97,35.86 35.42,54.96 64.4,90.82 21.82,27.02 54.5,63.73 72.6,91.74 24.08,37.26 15.32,48.48 11.14,84.86l-27.76 247.7c-4.05,36.16 -6.12,141.25 -29.1,163.95 -42.46,41.97 -128.76,102.57 -179.07,142.74l204.51 256.13 -62.83 50.17c59.53,74.55 61.9,53.46 -12.66,112.99l46.31 57.99 62.83 -50.16 100.33 125.65 -256.13 204.52c-125.34,-156.97 -115.61,-121.38 -46.2,-176.79l-42.44 -53.16c-137.72,109.96 -116.58,114.02 -160.41,57.14l-219.92 -275.76c-29.44,23.5 -161.8,135.29 -183.4,144.52 -17.39,7.45 -357.8,-33.52 -413.34,-41.87 -58.13,-8.73 -56,-8.5 -75.62,-32.05l-221.85 -258.52c-24.81,-29.24 -47.98,-63.75 -73.28,-92.15 -24.15,-27.1 -45.84,-47.32 -74.3,-83.09 -89.97,-113.1 -163.22,-127.15 -224.85,-192.4zm1480.93 685.17c16.69,-11.19 48.43,-28.41 65.71,-36.64l46.31 57.99 -57.99 46.31 -54.03 -67.66zm-101.31 -116.96c8.82,-11.18 7.25,-13.71 20.31,-24.13l38.66 -30.87 50.17 62.82 -62.83 50.17 -46.31 -57.99zm-284.68 -247.51c13.67,-1.15 33.47,-1.56 48.51,-0.98 71.33,2.74 26.03,-24.61 186.98,176.97l-57.99 46.31 -177.5 -222.3zm356.31 79.53l-57.99 46.3 -100.34 -125.65 125.66 -100.33 46.31 57.99c38.17,-18.2 28.07,-14.5 66.68,-45.33l50.17 62.82 -62.83 50.17 50.17 62.83 62.82 -50.17 54.03 67.66 -62.82 50.17 50.16 62.82 62.83 -50.16 54.02 67.66 -62.83 50.16 46.31 58 -67.66 54.02 -46.31 -57.99 62.83 -50.17 -54.02 -67.65 -58 46.3 -154.34 -193.3 57.99 -46.31 -50.17 -62.82 -62.83 50.16 50.17 62.83zm0.26 -277.19c-12.05,-15.09 -0.39,-35.64 3.12,-52.46 5.04,-24.19 5.97,-32.26 13.4,-55.7l127.34 159.47 -62.82 50.16 -81.04 -101.48zm-144.94 76.17c-49.8,4.18 -382.84,12.14 -402.77,20.87l-200.66 -251.29c-18.04,-22.57 -66.97,-65.23 -43.38,-84.07l478.43 -382.03c11.14,-8.89 17.18,-8.21 26.07,2.93l235.39 294.78c15.1,18.92 -35.09,174.83 -41.04,197.82 -8.68,33.53 -17.86,64.33 -24.99,98.41 -7.41,35.43 -16.41,68.98 -27.06,102.58zm-1178.11 -206.81l424.3 -330.88 100.33 125.65c-70.93,56.64 -134.46,89.3 -114.08,114.84l335.72 420.43c16.81,21.05 32.06,-1.86 79.24,-39.53l200.65 251.29c-137.3,109.64 -84.96,89.72 -223.88,73.8l-122.18 -9.16c-164.06,-18.38 -115.84,3.84 -177.41,-66.09l-331.9 -375.96c-18.51,-20.78 -35.22,-47.25 -54.05,-67.45 -33.69,-36.15 -83.96,-55.88 -116.75,-96.95zm1644.74 47.88l-111.15 88.76 -200.66 -251.3 67.66 -54.02 -358.87 -449.44 -125.65 100.34 -100.34 -125.66 116 -92.62c41.18,-33.05 67.23,-45.3 105.32,-76.08 73.47,-59.36 126.87,-109.31 199.13,-167.01 81.18,170.24 -22.93,40.66 151.39,258.97 23.2,29.06 294.88,377.67 299.63,403.2 2.35,12.68 -11.53,99.64 -13.13,121.74 -1.75,24.03 0.74,35.66 -2.29,61.35 -4.54,38.52 -12.27,169.98 -27.05,181.78zm-950 -182.06l255.51 -201.48 100.35 125.67c-6.1,20.33 -60.53,170.06 -69.73,176.4 -5.95,4.1 -165.63,25.19 -184.15,27.12l-101.98 -127.71zm45.72 187.73c21.14,11.33 120.76,-3.57 150.3,-6.11 45.72,-3.93 104.3,-6.08 147.66,-13.91l85.46 -278.24 -148.12 -186.79 -380.31 301.52 145 183.53z"/>
   <path class="fil7" d="M14685.57 11810.48l-0.37 0.77c-150.49,311.96 -160.31,655.33 -54.55,958.3 105.67,302.64 326.8,565.05 638.37,715.61l0.76 0.37c311.96,150.49 655.33,160.31 958.3,54.55 302.63,-105.67 565.05,-326.79 715.61,-638.36l0.36 -0.77c150.5,-311.96 160.32,-655.33 54.56,-958.3 -105.67,-302.63 -326.8,-565.05 -638.36,-715.61l-0.77 -0.37c-311.96,-150.49 -655.33,-160.31 -958.3,-54.55 -302.63,105.67 -565.05,326.8 -715.61,638.36zm-136 -64.69c-337.07,698.67 -43.93,1538.29 654.75,1875.36 698.67,337.07 1538.29,43.93 1875.35,-654.75 337.07,-698.67 43.93,-1538.29 -654.74,-1875.36 -698.67,-337.06 -1538.29,-43.93 -1875.36,654.75zm1742.07 1491.01c28.14,-58.34 -67.39,-128.56 -107.65,-45.11 -32.28,66.92 75.75,111.22 107.65,45.11zm69.87 -102.5c60.92,29.39 73.09,-53.28 40.18,-69.16 -46.58,-22.47 -86.96,46.59 -40.18,69.16zm44.34 -162.48c66.53,32.09 103.84,-45.26 37.32,-77.36 -41.77,-20.14 -79.08,57.21 -37.32,77.36zm-244.28 379.31c-95.27,-45.97 -88.58,-33.7 -122.68,-108.78 -8.27,-18.21 -19.15,-24.75 -38.95,-36.94 -22.91,-14.1 -29.2,-21.27 -52.14,-32.33 26.05,-53.99 27.22,-31.59 90.09,-31.45 18.86,-39.1 28.26,-72.69 50.45,-118.69 -21.36,-17.21 -35.33,-36.69 -63.83,-51.22 11.48,-14.24 23.56,-30.15 35.04,-44.4 72.98,35.21 87.21,21.76 134.11,15.68 61.15,-7.93 40.31,-11.17 102.61,-74.55 21.7,-22.06 26.2,-23.95 53.96,-29.68l179.39 -38.82c78.29,182.23 -37.38,444.8 -212.98,534.74 -46.13,23.64 -100.49,42.74 -155.06,16.42zm399.95 -236.11l-16.07 33.31c-48.95,100.93 -85.26,165.46 -195.79,228.31 -54.05,30.73 -151.3,46.72 -225.98,10.69 -208.62,-100.65 -83.97,-129.05 -258.15,-213.07l42.45 -102.11c21.05,4.01 54.44,-3 76.77,-3.84l29.32 -60.77c-16.08,-12.95 -56.97,-51.34 -47.65,-70.66 61.31,-127.07 11.88,-58.82 167.43,-59.93 28.45,-0.2 40.15,5.69 59.41,-14.07 15.48,-15.89 28.66,-39.71 45.7,-53.32 -13.32,-18.08 -16.16,-26.17 -26.56,-45.85 -7.89,-14.89 -23.65,-33.59 -15.94,-49.57 30.28,-62.77 58.6,-79.96 50.46,-114.08 -6.15,-25.76 -23.94,-66.56 -33.52,-93.98l-124.75 -379.1c-6.28,-29.75 -20.52,-65.17 -30.89,-94.88 -12.58,-36.05 -38.89,-37 -105.13,-68.96 0.24,-115.15 94.15,-62.95 -122.2,-274.33 -54.69,-53.44 -401.27,-310.98 -473.79,-353.71 42.63,-52.88 165.13,-65.2 229.5,-66.39 76.41,-1.4 182.98,20.2 275.27,64.73 136.25,65.73 190.18,102.35 271.09,231.52 29.84,47.66 89.67,193.88 81.23,238.1l71.82 34.65c-0.05,27.35 -11.1,65.4 -9.56,90.63 2.55,41.76 98.12,282.72 123.55,347.36l92.48 266.33c11.52,31.08 33.87,40.48 66.17,64.18 23.61,17.34 24.36,11.57 27.17,36.46l4.67 104.04c-0.39,23.75 -5.06,18.69 4.16,39.89 42.45,97.65 14.29,231.08 -32.66,328.4zm-282.39 -374.6c15.67,-26.59 24.07,-36.29 49.83,-41.5 44.68,-9.02 74.77,-25.05 124.93,-36.93 27.4,-6.49 35.35,-9.93 71.14,6.36 0.73,19.68 2.84,39.29 -1.89,60.39l-207.61 63.29c-12.51,-17 -21.64,-38.92 -36.39,-51.61zm165.48 -131.29c-35.69,5.05 -83.53,27.87 -106.66,23.46 -13.07,-22.24 -20.59,-48.63 -25.73,-73.71 -5.65,-27.53 -15.45,-50.81 -25.12,-78.52l-158.08 -459.34c16.39,-9.63 26.85,-10.41 44.04,-18.63 21.63,-10.35 23.89,-14.84 48.72,-18.35 25.89,44.05 79.76,241.19 111.08,310.37 22.67,50.09 107.44,284.15 111.76,314.72zm-232.18 -704.51c-41.17,32.88 -19.98,38.57 -78.42,51.73 -105.32,23.72 -37.99,2.9 -90.91,2.79 12.56,-26.04 10.94,-25.19 16.49,-44.88l113.97 -42.01c8.08,10.12 24.76,24.05 38.87,32.37zm-260.5 -189.29c-92.83,-120.99 -337.03,-282.85 -474.13,-349 34.23,-39.79 158.76,-42.12 214.05,-31.67 231.22,43.69 438.62,256.49 469.88,477.39l-109.13 42.7 -100.68 -139.42zm-520.04 1059.03c-19.02,-9.18 -11,-21.87 -1.03,-40.51 53.56,-100.1 137.47,-284.64 192.34,-398.41 20.83,-43.18 27.88,-75.09 51.23,-63.82 85.49,41.25 274.55,124.37 292.54,201.06 37.56,160.1 -29.65,326.07 -178.07,403.15 -92.78,48.19 -245.25,-47.56 -357.01,-101.48zm-47.83 -84.37c-24.25,-20.87 -25.3,-70.68 -26.24,-101.1 -3.13,-101.13 -0.89,-96.79 33.4,-167.86 16.28,-33.74 136.04,-138.11 184.73,-128.81l-191.89 397.77zm-127.13 -258.83c-41.86,-20.19 -27.66,56.16 -177.45,57.53 -22.76,0.21 -44.18,-4.65 -65.96,-4.69l31.98 -66.3c163.45,-6.09 194.67,-92.24 103.95,-215.46l34.65 -71.82c39.68,53.9 112.15,149.73 99.11,218.07l55.24 26.65 -37.31 77.35 -44.2 -21.33zm17.55 76.57l33.15 16c-23.45,51.51 -12.42,140.14 -3.86,185.1 18.41,96.69 135.79,137.34 234.05,184.73 83.93,40.5 209.09,72.24 268.43,45.13 177.48,-81.11 269.88,-277.03 232.57,-468.11 -21.37,-109.47 -169.9,-173.22 -265.93,-219.55 -131.25,-63.32 -182.77,-62.37 -287.11,6.62 -24.12,15.95 -61.23,38.95 -79.55,61.67 -93.18,-44.95 -42.1,-62.37 -106.07,-146.73 -24.27,-32.01 -104.83,-107.08 -147.53,-132.25l-82.62 171.26c22.63,28.32 73.29,73.95 53.75,114.46 -15.06,31.2 -90.81,22.56 -120.39,23.66l-82.62 171.25c99.99,22.43 187.24,53.2 272.52,17.37 20.18,-8.48 62.38,-39.68 81.2,-30.61z"/>
   <path class="fil8" d="M5325.53 1023.06l3469.63 7191.91c41.86,-15.75 84.99,-28.73 129.13,-38.71 43.64,-9.86 88.08,-16.86 133.09,-20.83l0 -7982.44c-658.53,6.19 -1299.47,83.1 -1915.6,223.5 -633.36,144.31 -1241.4,355.81 -1816.24,626.57zm3350.19 7340.53l-3580.21 -7421.11 77.5 -37.42c608.93,-294.01 1255.64,-522.54 1931.01,-676.43 656.55,-149.62 1339.27,-228.63 2039.66,-228.63l86.3 0 0 8324.22 -86.3 0c-63.18,0 -123.97,6.89 -181.61,19.92 -60.22,13.61 -117.75,33.74 -171.73,59.56l-77.39 37.03 -37.22 -77.14zm554.25 -8190.59l0 7982.44c45.01,3.97 89.45,10.97 133.09,20.83 44.14,9.98 87.27,22.96 129.13,38.71l3469.63 -7191.91c-574.85,-270.76 -1182.89,-482.25 -1816.24,-626.57 -616.13,-140.4 -1257.07,-217.31 -1915.6,-223.5zm-172.59 8064.93l0 -8237.92 86.3 0c700.38,0 1383.11,79.01 2039.66,228.63 675.37,153.88 1322.08,382.42 1931.01,676.43l77.5 37.42c-1205.76,2499.45 -2411.39,4998.95 -3617.43,7498.25l-77.39 -37.03c-53.99,-25.82 -111.52,-45.95 -171.73,-59.56 -57.65,-13.03 -118.44,-19.92 -181.61,-19.92l-86.3 0 0 -86.3zm4059.47 -7140l-3469.36 7191.34c40.17,23.68 78.34,49.97 114.24,78.61 36.38,29.02 70.66,60.54 102.59,94.28l6238.05 -4981.07c-405.82,-498.11 -864.07,-951.86 -1366.35,-1352.76 -499.15,-398.43 -1041.64,-744.65 -1619.16,-1030.39zm-3660.27 7190.84l3580.22 -7421.13 77.54 37.43c618.34,298.54 1197.83,664.59 1728.86,1088.44 534.85,426.9 1020.78,912.61 1447.96,1447.26l53.64 67.15c-2168.46,1731.3 -4336.82,3462.73 -6505.08,5194.28l-53.65 -67.61c-38.76,-48.82 -82.92,-93.1 -131.54,-131.89 -48.82,-38.96 -101.66,-72.28 -157.51,-99l-77.92 -37.27 37.48 -77.67zm6753.29 -4673.13l-6238.47 4981.4c24.44,36.96 46.5,75.68 65.93,115.93 19.18,39.74 35.8,80.96 49.63,123.44l7786.4 -1769.83c-149.97,-632.78 -367.09,-1239.83 -643.41,-1813.11 -281.34,-583.73 -624.18,-1132.48 -1020.07,-1637.82zm-6409.99 4897.94l6437.4 -5140.23 53.88 67.42c426.29,533.55 794.16,1116.1 1093.84,1737.87 293.93,609.84 522.21,1257.51 675.63,1933.79l18.99 83.72c-2706.05,615.01 -5412.11,1229.94 -8118.11,1845.23l-19.38 -83.7c-13.74,-59.33 -33.96,-116.24 -59.85,-169.87 -26.37,-54.63 -58.74,-106.01 -96.21,-153.21l-53.44 -67.31 67.25 -53.7zm8111.54 -1279.22l-7785.65 1769.67c1.25,8.87 2.39,17.78 3.41,26.72 4.3,37.89 6.53,75.61 6.53,112.94 0,37.33 -2.23,75.05 -6.53,112.94 -1.02,8.94 -2.16,17.85 -3.41,26.72l7785.65 1769.67c64.08,-295.73 113.63,-597.33 147.8,-903.99 36.68,-329.09 55.54,-664.54 55.54,-1005.33 0,-340.8 -18.86,-676.25 -55.54,-1005.33 -34.18,-306.66 -83.73,-608.26 -147.8,-903.99zm-7904.23 1620.17l8034.37 -1826.18 19.07 84.08c74.82,329.79 131.79,665.85 169.82,1007.05 37.58,337.15 56.9,678.91 56.9,1024.2 0,345.3 -19.32,687.06 -56.9,1024.2 -38.04,341.21 -95.01,677.27 -169.82,1007.05l-19.07 84.08c-2706.31,-615.03 -5412.63,-1230.02 -8118.87,-1845.4l19.44 -83.93c6.95,-30.05 12.29,-60.76 15.82,-91.94 3.41,-30.02 5.18,-61.42 5.18,-94.07 0,-32.65 -1.77,-64.05 -5.18,-94.07 -3.53,-31.18 -8.87,-61.89 -15.82,-91.94l-19.44 -83.93 84.5 -19.22zm7866.17 2366.25l-7786.4 -1769.83c-13.83,42.48 -30.45,83.7 -49.63,123.44 -19.43,40.25 -41.49,78.97 -65.93,115.93l6238.47 4981.4c395.9,-505.34 738.73,-1054.09 1020.07,-1637.82 276.32,-573.29 493.43,-1180.34 643.41,-1813.11zm-7828.41 -1955.83l8034.67 1826.26 -18.99 83.72c-153.41,676.28 -381.7,1323.95 -675.63,1933.79 -299.68,621.77 -667.55,1204.32 -1093.84,1737.87l-53.88 67.42c-2168.11,-1731.44 -4336.39,-3462.68 -6504.65,-5193.93l53.44 -67.31c37.47,-47.21 69.84,-98.59 96.21,-153.21 25.89,-53.64 46.11,-110.55 59.85,-169.87l19.38 -83.7 83.44 18.97zm6057.42 5541.32l-6238.05 -4981.07c-31.93,33.74 -66.21,65.26 -102.59,94.28 -35.9,28.64 -74.07,54.93 -114.24,78.61l3469.36 7191.34c577.52,-285.74 1120.01,-631.97 1619.16,-1030.39 502.28,-400.91 960.54,-854.65 1366.35,-1352.76zm-6195.3 -5167.32l6437.73 5140.49 -53.64 67.15c-427.17,534.65 -913.11,1020.35 -1447.96,1447.26 -531.03,423.85 -1110.52,789.9 -1728.86,1088.44l-77.54 37.43 -3617.7 -7498.8 77.92 -37.27c55.86,-26.72 108.7,-60.04 157.51,-99 48.62,-38.79 92.78,-83.07 131.54,-131.89l53.65 -67.61 67.35 53.79zm3054.75 7625.33l-3469.63 -7191.91c-41.86,15.75 -84.99,28.73 -129.13,38.71 -43.64,9.86 -88.08,16.86 -133.09,20.83l0 7982.44c658.53,-6.19 1299.47,-83.1 1915.6,-223.5 633.36,-144.31 1241.4,-355.81 1816.24,-626.57zm-3350.19 -7340.53l3580.21 7421.11 -77.5 37.42c-608.93,294.01 -1255.64,522.54 -1931.01,676.43 -656.55,149.62 -1339.27,228.63 -2039.66,228.63l-86.3 0 0 -8324.22 86.3 0c63.18,0 123.97,-6.89 181.61,-19.92 60.22,-13.61 117.75,-33.74 171.73,-59.56l77.39 -37.03 37.22 77.14zm-554.25 8190.59l0 -7982.44c-45.01,-3.97 -89.45,-10.97 -133.09,-20.83 -44.14,-9.98 -87.27,-22.96 -129.13,-38.71l-3469.63 7191.91c574.85,270.76 1182.89,482.25 1816.24,626.57 616.13,140.4 1257.07,217.31 1915.6,223.5zm172.59 -8064.93l0 8237.92 -86.3 0c-700.38,0 -1383.11,-79.01 -2039.66,-228.63 -675.37,-153.88 -1322.08,-382.42 -1931.01,-676.43l-77.5 -37.42c1205.76,-2499.45 2411.39,-4998.95 3617.43,-7498.25l77.39 37.03c53.99,25.82 111.52,45.95 171.73,59.56 57.65,13.03 118.44,19.92 181.61,19.92l86.3 0 0 86.3zm-4059.46 7140l3469.35 -7191.34c-40.17,-23.68 -78.34,-49.97 -114.24,-78.61 -36.38,-29.02 -70.66,-60.54 -102.59,-94.28l-6238.04 4981.08c405.81,498.12 864.07,951.86 1366.33,1352.75 499.15,398.43 1041.65,744.64 1619.18,1030.39zm3660.26 -7190.84l-3580.22 7421.13 -77.54 -37.43c-618.34,-298.57 -1197.85,-664.59 -1728.87,-1088.44 -534.84,-426.9 -1020.75,-912.59 -1447.94,-1447.25l-53.64 -67.15c2168.46,-1731.3 4336.81,-3462.74 6505.07,-5194.29l53.65 67.61c38.76,48.82 82.92,93.1 131.54,131.89 48.82,38.96 101.66,72.28 157.51,99l77.92 37.27 -37.48 77.67zm-6753.28 4673.14l6238.46 -4981.41c-24.44,-36.96 -46.5,-75.68 -65.93,-115.93 -19.18,-39.74 -35.8,-80.96 -49.63,-123.44l-7786.4 1769.83c149.98,632.79 367.11,1239.84 643.42,1813.11 281.34,583.73 624.17,1132.48 1020.07,1637.83zm6409.98 -4897.95l-6437.39 5140.24 -53.88 -67.42c-426.29,-533.57 -794.16,-1116.13 -1093.84,-1737.88 -293.93,-609.83 -522.21,-1257.5 -675.64,-1933.79l-18.99 -83.72c2706.05,-615.01 5412.11,-1229.94 8118.11,-1845.23l19.38 83.7c13.74,59.33 33.96,116.24 59.85,169.87 26.37,54.63 58.74,106.01 96.21,153.21l53.44 67.31 -67.25 53.7zm-8111.54 1279.22l7785.65 -1769.67c-1.25,-8.87 -2.39,-17.78 -3.41,-26.72 -4.3,-37.89 -6.53,-75.61 -6.53,-112.94 0,-37.33 2.23,-75.05 6.53,-112.94 1.02,-8.94 2.16,-17.85 3.41,-26.72l-7785.65 -1769.67c-64.08,295.73 -113.63,597.33 -147.8,903.99 -36.68,329.09 -55.54,664.54 -55.54,1005.33 0,340.8 18.86,676.25 55.54,1005.33 34.18,306.66 83.73,608.26 147.8,903.99zm7904.23 -1620.17l-8034.37 1826.18 -19.07 -84.08c-74.82,-329.79 -131.79,-665.85 -169.82,-1007.05 -37.58,-337.15 -56.9,-678.91 -56.9,-1024.2 0,-345.3 19.32,-687.06 56.9,-1024.2 38.04,-341.21 95.01,-677.27 169.82,-1007.05l19.07 -84.08c2706.31,615.03 5412.63,1230.02 8118.87,1845.4l-19.44 83.93c-6.95,30.05 -12.29,60.76 -15.82,91.94 -3.41,30.02 -5.18,61.42 -5.18,94.07 0,32.65 1.77,64.05 5.18,94.07 3.53,31.18 8.87,61.89 15.82,91.94l19.44 83.93 -84.5 19.22zm-7866.17 -2366.26l7786.4 1769.84c13.83,-42.48 30.45,-83.7 49.63,-123.44 19.43,-40.25 41.49,-78.97 65.93,-115.93l-6238.46 -4981.41c-395.9,505.35 -738.74,1054.1 -1020.08,1637.83 -276.31,573.28 -493.43,1180.33 -643.41,1813.1zm7828.41 1955.84l-8034.67 -1826.26 18.99 -83.72c153.41,-676.28 381.7,-1323.96 675.63,-1933.79 299.68,-621.77 667.56,-1204.32 1093.85,-1737.88l53.88 -67.42c2168.12,1731.44 4336.38,3462.69 6504.64,5193.94l-53.44 67.31c-37.47,47.21 -69.84,98.59 -96.21,153.21 -25.89,53.64 -46.11,110.55 -59.85,169.87l-19.38 83.7 -83.44 -18.97zm-6057.41 -5541.33l6238.04 4981.08c31.93,-33.74 66.21,-65.26 102.59,-94.28 35.9,-28.64 74.07,-54.93 114.24,-78.61l-3469.35 -7191.34c-577.53,285.75 -1120.03,631.97 -1619.18,1030.39 -502.26,400.9 -960.53,854.63 -1366.33,1352.75zm6195.29 5167.33l-6437.72 -5140.5 53.64 -67.15c427.18,-534.66 913.1,-1020.34 1447.94,-1447.25 531.02,-423.85 1110.53,-789.87 1728.87,-1088.44l77.54 -37.43 3617.7 7498.8 -77.92 37.27c-55.86,26.72 -108.7,60.04 -157.51,99 -48.62,38.79 -92.78,83.07 -131.54,131.89l-53.65 67.61 -67.35 -53.79z"/>
  </g>
 </g>
</svg>
